{"accessors":[{"bufferView":2,"componentType":5126,"count":781,"max":[0.6877610087394714,0.6877610087394714,1.6903539896011353],"min":[-0.6877610087394714,-0.6877610087394714,-1.6533249616622925],"type":"VEC3","byteOffset":0},{"bufferView":2,"byteOffset":9372,"componentType":5126,"count":781,"max":[1,1,1],"min":[-1,-1,-1],"type":"VEC3"},{"bufferView":3,"componentType":5126,"count":781,"max":[0.9999717473983765,0.9999717473983765,0.997886061668396,1],"min":[-0.9999717473983765,-0.9999717473983765,-0.9978109002113342,1],"type":"VEC4","byteOffset":0},{"bufferView":1,"componentType":5126,"count":781,"max":[1,1],"min":[0,0],"type":"VEC2","byteOffset":0},{"bufferView":0,"componentType":5125,"count":2580,"max":[780],"min":[0],"type":"SCALAR","byteOffset":0}],"asset":{"extras":{"author":"Blender3D (https://sketchfab.com/Blender3D)","license":"CC-BY-4.0 (http://creativecommons.org/licenses/by/4.0/)","source":"https://sketchfab.com/models/d575ea35702d4cabbf94084e76704dbf","title":"Duracell Battery"},"generator":"Sketchfab-3.23.2","version":"2.0"},"bufferViews":[{"buffer":0,"byteLength":10320,"byteOffset":0,"name":"floatBufferViews","target":34963},{"buffer":0,"byteLength":6248,"byteOffset":10320,"byteStride":8,"name":"floatBufferViews","target":34962},{"buffer":0,"byteLength":18744,"byteOffset":16568,"byteStride":12,"name":"floatBufferViews","target":34962},{"buffer":0,"byteLength":12496,"byteOffset":35312,"byteStride":16,"name":"floatBufferViews","target":34962},{"buffer":0,"byteOffset":47808,"byteLength":495},{"buffer":0,"byteOffset":48304,"byteLength":249713}],"buffers":[{"byteLength":298020,"uri":"data:application/octet-stream;base64,"}],"images":[{"bufferView":4,"mimeType":"image/png"},{"bufferView":5,"mimeType":"image/png"}],"materials":[{"doubleSided":true,"emissiveFactor":[0,0,0],"name":"Material.006","occlusionTexture":{"index":0,"strength":1,"texCoord":0},"pbrMetallicRoughness":{"baseColorFactor":[1,1,1,1],"baseColorTexture":{"index":1,"texCoord":0},"metallicFactor":0.3115151608,"metallicRoughnessTexture":{"index":0,"texCoord":0},"roughnessFactor":1},"alphaMode":"OPAQUE"}],"meshes":[{"primitives":[{"attributes":{"NORMAL":1,"POSITION":0,"TANGENT":2,"TEXCOORD_0":3},"indices":4,"material":0,"mode":4}]}],"nodes":[{"children":[1],"name":"RootNode (gltf orientation matrix)","rotation":[-0.7071067811865475,0,0,0.7071067811865476],"translation":[0,0,0],"scale":[1,1,1]},{"children":[2],"name":"RootNode (model correction matrix)"},{"children":[3],"name":"DuracellBattery.obj.cleaner.materialmerger.gles"},{"mesh":0,"name":""}],"samplers":[{"magFilter":9729,"minFilter":9987,"wrapS":10497,"wrapT":10497}],"scene":0,"scenes":[{"name":"OSG_Scene","nodes":[0]}],"textures":[{"sampler":0,"source":0},{"sampler":0,"source":1}]}
